<?xml version="1.0" encoding="UTF-8"?><svg id="Layer_1" xmlns="http://www.w3.org/2000/svg" viewBox="0 0 170.08 170.08"><path d="M113.39,0h-56.69C25.38,0,0,25.38,0,56.69v56.69c0,31.31,25.38,56.69,56.69,56.69h56.69c31.31,0,56.69-25.38,56.69-56.69v-56.69c0-31.31-25.38-56.69-56.69-56.69ZM80.48,122.42c0,15.26-12.37,27.63-27.63,27.63h-7.11c-15.26,0-27.63-12.37-27.63-27.63v-9.17c0-15.26,12.37-27.63,27.63-27.63h7.11c15.26,0,27.63,12.37,27.63,27.63v9.17ZM152.03,119.4c0,15.66-12.69,28.35-28.35,28.35h-5.67c-15.66,0-28.35-12.69-28.35-28.35V51.1c0-15.66,12.69-28.35,28.35-28.35h5.67c15.66,0,28.35,12.69,28.35,28.35v68.3Z"/></svg>