<?xml version="1.0" encoding="UTF-8"?>
<svg id="Layer_1" xmlns="http://www.w3.org/2000/svg" xmlns:i="http://ns.adobe.com/AdobeIllustrator/10.0/" version="1.1" width="760" height="48" viewBox="0 0 760 48">
  <!-- Generator: Adobe Illustrator 30.3.0, SVG Export Plug-In . SVG Version: 2.1.3 Build 182)  -->
  <g isolation="isolate">
    <path d="M82.414,33.72c-.075,0-.159-.027-.252-.084-.093-.056-.159-.177-.196-.363l-4.228-17.164c-.019-.131-.075-.191-.168-.183-.094.01-.14.08-.14.21l-.56,15.456c-.019.523.065.92.252,1.19s.513.443.98.518l.364.057c.242.019.364.13.364.336s-.14.308-.42.308h-4.004c-.28,0-.42-.103-.42-.308s.121-.317.364-.336l.364-.057c.485-.074.816-.247.994-.518s.275-.667.294-1.19l.56-15.903c.019-.393-.038-.653-.168-.784-.131-.131-.411-.233-.84-.309l-.644-.111c-.243-.057-.364-.168-.364-.336,0-.206.14-.309.42-.309h3.36c.579,0,.933.28,1.064.84l3.388,13.973c.037.131.098.195.182.195s.135-.064.154-.195l3.528-14.112c.112-.467.411-.7.896-.7h3.304c.28,0,.42.103.42.309,0,.168-.122.279-.364.336l-.644.111c-.392.075-.654.178-.784.309-.131.131-.187.392-.168.784l.56,16.464c.018.392.084.653.196.783.112.131.364.234.756.309l.644.112c.243.056.364.168.364.336,0,.205-.14.308-.42.308h-5.068c-.28,0-.42-.103-.42-.308,0-.168.122-.28.364-.336l.644-.112c.392-.074.653-.178.784-.309.13-.13.187-.392.168-.783l-.476-16.017c0-.13-.042-.2-.126-.21-.084-.009-.145.042-.182.154l-4.256,17.192c-.038.187-.098.308-.182.363-.084.057-.164.084-.238.084Z" fill="#fff"/>
    <path d="M95.573,34.252c-.784,0-1.428-.248-1.932-.742-.504-.494-.756-1.152-.756-1.974,0-.803.252-1.563.756-2.282.504-.719,1.194-1.367,2.072-1.946.877-.578,1.876-1.045,2.996-1.399.242-.074.364-.233.364-.477v-2.548c0-.896-.14-1.535-.42-1.918-.28-.382-.663-.574-1.148-.574-.467,0-.892.21-1.274.631-.383.42-.658,1.124-.826,2.113-.094.598-.294,1.032-.602,1.303-.308.271-.621.405-.938.405-.522,0-.784-.261-.784-.784,0-.541.154-1.077.462-1.609s.714-1.018,1.218-1.456,1.055-.788,1.652-1.05c.597-.262,1.194-.393,1.792-.393,1.848,0,2.772,1.074,2.772,3.221v8.567c0,.784.196,1.176.588,1.176.242,0,.466-.163.672-.489.205-.327.308-.883.308-1.666,0-.299.121-.448.364-.448.224,0,.336.159.336.476,0,1.363-.238,2.348-.714,2.954-.476.607-1.013.91-1.61.91-.448,0-.803-.182-1.064-.546-.262-.364-.439-.798-.532-1.302-.019-.187-.098-.285-.238-.294-.14-.01-.276.079-.406.266-.448.616-.905,1.083-1.372,1.4-.467.316-1.046.476-1.736.476ZM96.33,32.964c.485,0,.933-.172,1.344-.518s.747-.808,1.008-1.387c.261-.578.392-1.231.392-1.96v-2.044c0-.354-.196-.457-.588-.308-1.139.411-2.021.976-2.646,1.694-.625.719-.938,1.582-.938,2.59,0,1.288.476,1.932,1.428,1.932Z" fill="#fff"/>
    <path d="M104.141,34c-.224,0-.336-.103-.336-.308,0-.187.103-.299.308-.336l.392-.057c.392-.056.648-.168.77-.336.121-.168.182-.448.182-.84v-16.044c0-.336-.051-.564-.154-.687-.103-.121-.285-.2-.546-.237l-.588-.084c-.206-.037-.308-.149-.308-.336s.103-.299.308-.336c.522-.112.961-.243,1.316-.393.354-.149.653-.298.896-.448.298-.186.522-.279.672-.279.205,0,.308.149.308.447v11.732c0,.187.079.304.238.35.159.047.312-.014.462-.182l3.276-3.528c.392-.429.555-.788.49-1.077-.065-.29-.285-.472-.658-.547l-.644-.111c-.243-.057-.364-.178-.364-.364s.13-.28.392-.28h4.816c.261,0,.392.104.392.309s-.122.317-.364.336l-.252.027c-.429.038-.858.201-1.288.49-.43.29-.943.742-1.54,1.358l-1.736,1.848c-.392.43-.485.85-.28,1.26l3.528,6.776c.206.374.429.644.672.812.242.168.541.29.896.364l.28.057c.224.056.336.168.336.336,0,.205-.131.308-.392.308h-4.872c-.261,0-.392-.103-.392-.308,0-.187.121-.299.364-.336l.476-.057c.709-.093.858-.55.448-1.372l-2.66-5.18c-.094-.187-.229-.289-.406-.308s-.341.046-.49.195l-.308.309c-.168.168-.28.336-.336.504s-.084.354-.084.56v4.116c0,.392.06.672.182.84.121.168.378.271.77.309l.756.084c.205.037.308.149.308.336,0,.205-.112.308-.336.308h-4.9Z" fill="#fff"/>
    <path d="M120.493,34.252c-.896,0-1.699-.298-2.408-.896s-1.274-1.442-1.694-2.534-.63-2.356-.63-3.794c0-1.475.214-2.772.644-3.893.429-1.12,1.017-1.997,1.764-2.632s1.578-.952,2.492-.952c1.101,0,1.992.453,2.674,1.358s1.022,2.375,1.022,4.41c0,.615-.234.924-.7.924h-5.32c-.374,0-.56.215-.56.644,0,1.979.289,3.463.868,4.452.579.99,1.316,1.484,2.212,1.484.709,0,1.288-.252,1.736-.756.448-.504.812-1.354,1.092-2.549.056-.205.177-.308.364-.308.224,0,.308.187.252.561-.299,1.661-.775,2.823-1.428,3.485-.653.663-1.447.994-2.38.994ZM118.253,25.544h2.828c.896,0,1.344-.467,1.344-1.4,0-1.213-.15-2.165-.448-2.855-.299-.69-.747-1.036-1.344-1.036-.728,0-1.34.42-1.834,1.26-.495.84-.817,2.035-.966,3.584-.038.299.103.448.42.448Z" fill="#fff"/>
    <path d="M133.373,34c-.28,0-.42-.103-.42-.308s.121-.317.364-.336l1.26-.196c.374-.057.625-.154.756-.294.13-.141.196-.406.196-.798v-6.608c0-.41-.094-.812-.28-1.204l-4.116-8.624c-.131-.317-.28-.56-.448-.728s-.411-.289-.728-.364l-.252-.056c-.261-.057-.392-.178-.392-.364s.14-.28.42-.28h4.788c.261,0,.392.103.392.309s-.159.317-.476.336l-.532.056c-.317.019-.542.122-.672.308-.131.188-.103.477.084.868l3.444,7.336c.075.131.168.196.28.196s.205-.065.28-.196l3.304-6.748c.242-.485.303-.882.182-1.189-.122-.309-.397-.49-.826-.546l-.616-.084c-.317-.057-.476-.168-.476-.336,0-.206.13-.309.392-.309h3.976c.28,0,.42.094.42.28s-.131.308-.392.364l-.28.056c-.262.056-.49.215-.686.476-.196.262-.453.7-.77,1.316l-3.668,7.364c-.131.262-.224.509-.28.742-.056.233-.084.499-.084.798v6.832c0,.392.07.657.21.798.14.14.387.237.742.294l1.26.196c.242.019.364.13.364.336s-.14.308-.42.308h-6.3Z" fill="#fff"/>
    <path d="M146.673,34.252c-.952,0-1.806-.322-2.562-.966-.756-.645-1.358-1.526-1.806-2.646-.448-1.12-.672-2.37-.672-3.752s.224-2.622.672-3.724c.448-1.102,1.055-1.979,1.82-2.632.765-.653,1.614-.98,2.548-.98.952,0,1.806.327,2.562.98s1.358,1.53,1.806,2.632c.448,1.102.672,2.343.672,3.724s-.22,2.632-.658,3.752c-.439,1.12-1.041,2.002-1.806,2.646-.766.644-1.624.966-2.576.966ZM146.673,33.552c1.941,0,2.912-2.221,2.912-6.664s-.971-6.636-2.912-6.636-2.912,2.212-2.912,6.636.97,6.664,2.912,6.664Z" fill="#fff"/>
    <path d="M157.201,34.252c-.467,0-.915-.103-1.344-.308-.43-.205-.784-.532-1.064-.98-.28-.448-.42-1.045-.42-1.792v-9.744c0-.336-.052-.569-.154-.7-.103-.13-.285-.205-.546-.224l-.476-.056c-.318-.037-.476-.158-.476-.364,0-.242.177-.364.532-.364h2.604c.28,0,.42.141.42.42v10.444c0,.858.164,1.47.49,1.834.326.364.779.546,1.358.546s1.092-.163,1.54-.49c.448-.326.807-.765,1.078-1.315.27-.551.406-1.152.406-1.807v-7.924c0-.336-.052-.569-.154-.7-.103-.13-.285-.205-.546-.224l-.476-.056c-.318-.037-.476-.158-.476-.364,0-.242.177-.364.532-.364h2.604c.279,0,.42.141.42.42v10.864c0,.336.051.564.153.687.103.121.285.2.546.237l.589.084c.242.02.363.112.363.28s-.149.28-.447.336c-.579.075-1.041.224-1.387.448-.346.224-.648.495-.91.812-.168.168-.308.252-.42.252-.168,0-.252-.111-.252-.336v-1.288c0-.148-.052-.237-.153-.266-.104-.028-.21.014-.322.126-.691.69-1.302,1.176-1.834,1.456-.532.28-1.125.42-1.778.42Z" fill="#fff"/>
    <path d="M169.437,21.512c.765-1.306,1.688-1.96,2.771-1.96.616,0,1.073.183,1.372.546.299.364.448.771.448,1.219,0,.354-.089.644-.266.867-.178.225-.453.336-.826.336-.299,0-.519-.069-.658-.21-.14-.14-.252-.303-.336-.489s-.182-.351-.294-.49-.299-.21-.561-.21c-.336,0-.653.201-.951.602-.299.402-.547.938-.742,1.61-.196.672-.294,1.438-.294,2.296v6.496c0,.392.06.672.182.84.121.168.378.271.771.309l.756.084c.205.037.308.14.308.308,0,.224-.14.336-.42.336h-4.732c-.279,0-.42-.103-.42-.308,0-.168.121-.28.364-.336l.336-.057c.393-.074.648-.191.771-.35.121-.158.182-.435.182-.826v-9.408c0-.336-.052-.564-.154-.686s-.284-.2-.546-.238l-.588-.084c-.243-.019-.364-.121-.364-.308,0-.149.149-.252.448-.309.578-.093,1.022-.242,1.33-.448.308-.205.63-.457.966-.756.168-.168.309-.252.42-.252.168,0,.252.112.252.336v1.513c0,.131.057.21.168.237.112.028.215-.042.309-.21Z" fill="#fff"/>
    <path d="M187.607,33.72c-.074,0-.158-.027-.252-.084-.093-.056-.158-.177-.195-.363l-4.229-17.164c-.019-.131-.074-.191-.168-.183-.094.01-.14.08-.14.21l-.561,15.456c-.019.523.065.92.252,1.19s.514.443.98.518l.364.057c.242.019.363.13.363.336s-.14.308-.42.308h-4.004c-.279,0-.42-.103-.42-.308s.121-.317.364-.336l.364-.057c.484-.074.816-.247.993-.518.178-.271.275-.667.295-1.19l.56-15.903c.019-.393-.038-.653-.168-.784-.131-.131-.411-.233-.84-.309l-.645-.111c-.242-.057-.363-.168-.363-.336,0-.206.14-.309.42-.309h3.359c.579,0,.934.28,1.064.84l3.388,13.973c.037.131.099.195.183.195s.135-.064.153-.195l3.528-14.112c.112-.467.41-.7.896-.7h3.305c.279,0,.42.103.42.309,0,.168-.122.279-.364.336l-.644.111c-.393.075-.654.178-.784.309-.131.131-.188.392-.168.784l.56,16.464c.019.392.084.653.196.783.112.131.364.234.756.309l.644.112c.243.056.364.168.364.336,0,.205-.14.308-.42.308h-5.067c-.28,0-.421-.103-.421-.308,0-.168.122-.28.364-.336l.645-.112c.392-.074.652-.178.783-.309.131-.13.187-.392.168-.783l-.476-16.017c0-.13-.042-.2-.126-.21-.084-.009-.145.042-.182.154l-4.256,17.192c-.038.187-.099.308-.183.363-.084.057-.163.084-.238.084Z" fill="#fff"/>
    <path d="M200.768,34.252c-.783,0-1.428-.248-1.932-.742s-.756-1.152-.756-1.974c0-.803.252-1.563.756-2.282s1.194-1.367,2.072-1.946c.877-.578,1.876-1.045,2.996-1.399.242-.074.363-.233.363-.477v-2.548c0-.896-.14-1.535-.42-1.918-.279-.382-.662-.574-1.147-.574-.467,0-.892.21-1.274.631-.383.42-.658,1.124-.826,2.113-.094.598-.294,1.032-.602,1.303s-.621.405-.938.405c-.522,0-.783-.261-.783-.784,0-.541.153-1.077.462-1.609.308-.532.714-1.018,1.218-1.456s1.055-.788,1.652-1.05c.597-.262,1.194-.393,1.792-.393,1.848,0,2.771,1.074,2.771,3.221v8.567c0,.784.196,1.176.588,1.176.242,0,.467-.163.672-.489.205-.327.309-.883.309-1.666,0-.299.121-.448.363-.448.225,0,.337.159.337.476,0,1.363-.238,2.348-.715,2.954-.476.607-1.013.91-1.609.91-.448,0-.803-.182-1.064-.546s-.438-.798-.532-1.302c-.019-.187-.098-.285-.237-.294-.141-.01-.276.079-.406.266-.448.616-.905,1.083-1.372,1.4-.467.316-1.046.476-1.736.476ZM201.524,32.964c.484,0,.933-.172,1.344-.518.41-.346.746-.808,1.008-1.387.261-.578.392-1.231.392-1.96v-2.044c0-.354-.195-.457-.588-.308-1.139.411-2.021.976-2.646,1.694-.626.719-.938,1.582-.938,2.59,0,1.288.477,1.932,1.429,1.932Z" fill="#fff"/>
    <path d="M212.892,21.512c.765-1.306,1.688-1.96,2.771-1.96.616,0,1.073.183,1.372.546.299.364.448.771.448,1.219,0,.354-.089.644-.266.867-.178.225-.453.336-.826.336-.299,0-.519-.069-.658-.21-.14-.14-.252-.303-.336-.489s-.182-.351-.294-.49-.299-.21-.561-.21c-.336,0-.653.201-.951.602-.299.402-.547.938-.742,1.61-.196.672-.294,1.438-.294,2.296v6.496c0,.392.06.672.182.84.121.168.378.271.771.309l.756.084c.205.037.308.14.308.308,0,.224-.14.336-.42.336h-4.732c-.279,0-.42-.103-.42-.308,0-.168.121-.28.364-.336l.336-.057c.393-.074.648-.191.771-.35.121-.158.182-.435.182-.826v-9.408c0-.336-.052-.564-.154-.686s-.284-.2-.546-.238l-.588-.084c-.243-.019-.364-.121-.364-.308,0-.149.149-.252.448-.309.578-.093,1.022-.242,1.33-.448.308-.205.63-.457.966-.756.168-.168.309-.252.42-.252.168,0,.252.112.252.336v1.513c0,.131.057.21.168.237.112.028.215-.042.309-.21Z" fill="#fff"/>
    <path d="M218.239,34c-.224,0-.336-.103-.336-.308,0-.187.103-.299.308-.336l.393-.057c.392-.056.648-.168.77-.336s.182-.448.182-.84v-16.044c0-.336-.051-.564-.153-.687-.103-.121-.285-.2-.546-.237l-.588-.084c-.206-.037-.309-.149-.309-.336s.103-.299.309-.336c.521-.112.961-.243,1.315-.393s.653-.298.896-.448c.298-.186.522-.279.672-.279.205,0,.308.149.308.447v11.732c0,.187.079.304.238.35.158.047.312-.014.462-.182l3.276-3.528c.392-.429.555-.788.489-1.077-.065-.29-.284-.472-.657-.547l-.645-.111c-.243-.057-.364-.178-.364-.364s.131-.28.393-.28h4.815c.262,0,.393.104.393.309s-.122.317-.364.336l-.252.027c-.43.038-.858.201-1.288.49-.43.29-.942.742-1.54,1.358l-1.736,1.848c-.392.43-.485.85-.279,1.26l3.527,6.776c.206.374.43.644.673.812.242.168.541.29.896.364l.28.057c.224.056.336.168.336.336,0,.205-.131.308-.393.308h-4.872c-.261,0-.392-.103-.392-.308,0-.187.121-.299.364-.336l.476-.057c.709-.093.858-.55.448-1.372l-2.66-5.18c-.094-.187-.229-.289-.406-.308-.177-.019-.341.046-.489.195l-.309.309c-.168.168-.279.336-.336.504-.056.168-.084.354-.084.56v4.116c0,.392.061.672.183.84.121.168.378.271.77.309l.756.084c.205.037.309.149.309.336,0,.205-.112.308-.337.308h-4.899Z" fill="#fff"/>
    <path d="M234.591,34.252c-.896,0-1.698-.298-2.408-.896-.709-.598-1.273-1.442-1.693-2.534s-.63-2.356-.63-3.794c0-1.475.214-2.772.644-3.893s1.018-1.997,1.764-2.632c.747-.635,1.578-.952,2.492-.952,1.102,0,1.992.453,2.674,1.358s1.022,2.375,1.022,4.41c0,.615-.233.924-.7.924h-5.319c-.374,0-.561.215-.561.644,0,1.979.289,3.463.868,4.452.578.99,1.316,1.484,2.212,1.484.709,0,1.288-.252,1.736-.756.447-.504.812-1.354,1.092-2.549.056-.205.177-.308.364-.308.224,0,.308.187.252.561-.299,1.661-.775,2.823-1.429,3.485-.653.663-1.446.994-2.38.994ZM232.352,25.544h2.827c.896,0,1.345-.467,1.345-1.4,0-1.213-.15-2.165-.448-2.855-.299-.69-.747-1.036-1.344-1.036-.729,0-1.34.42-1.834,1.26-.495.84-.817,2.035-.967,3.584-.037.299.103.448.421.448Z" fill="#fff"/>
    <path d="M243.271,34.252c-.654,0-1.19-.229-1.61-.686-.42-.458-.63-1.209-.63-2.255v-10.472c0-.224-.112-.336-.336-.336h-.812c-.299,0-.448-.112-.448-.336,0-.149.084-.28.253-.392.615-.43,1.11-.892,1.483-1.387.373-.494.7-1.171.98-2.029.13-.393.289-.588.476-.588.205,0,.308.149.308.447v3.108c0,.262.131.392.393.392h1.82c.298,0,.447.131.447.393s-.149.392-.447.392h-1.82c-.262,0-.393.131-.393.393v10.443c0,.411.065.733.196.966.131.234.373.351.729.351.392,0,.714-.196.966-.588.252-.393.415-1.026.49-1.904.037-.262.158-.392.363-.392.225,0,.336.14.336.42-.056,1.438-.35,2.474-.882,3.107-.532.635-1.152.952-1.861.952Z" fill="#fff"/>
  </g>
</svg>