<?xml version="1.0" encoding="UTF-8"?><svg id="Layer_1" xmlns="http://www.w3.org/2000/svg" viewBox="0 0 200 200"><path d="M128.35,14.96h-56.69c-31.31,0-56.69,25.38-56.69,56.69v56.69c0,31.31,25.38,56.69,56.69,56.69h56.69c31.31,0,56.69-25.38,56.69-56.69v-56.69c0-31.31-25.38-56.69-56.69-56.69ZM95.44,135.39c0,15.26-12.37,27.63-27.63,27.63h-7.11c-15.26,0-27.63-12.37-27.63-27.63v-9.17c0-15.26,12.37-27.63,27.63-27.63h7.11c15.26,0,27.63,12.37,27.63,27.63v9.17ZM166.99,134.36c0,15.66-12.69,28.35-28.35,28.35h-5.67c-15.66,0-28.35-12.69-28.35-28.35v-68.3c0-15.66,12.69-28.35,28.35-28.35h5.67c15.66,0,28.35,12.69,28.35,28.35v68.3Z" fill="none" stroke="#000" stroke-width="3"/></svg>
